<svg width="857" height="1163" viewBox="0 0 857 1163" fill="none" xmlns="http://www.w3.org/2000/svg">
<path d="M358.343 1148.04C322.78 1131.48 279.656 1090.81 279.656 1073.84C279.656 1062.34 283.59 1062.03 433.069 1062.03C581.103 1062.03 586.481 1062.44 586.481 1073.51C586.481 1087.74 528.357 1136.17 493.059 1151.35C455.443 1167.52 397.111 1166.09 358.343 1148.04ZM230.153 1035.29C218.498 1023.64 217.561 983.438 228.728 974.17C234.487 969.39 293.329 967.913 433.77 969.022L630.734 970.579L632.27 997.131C634.96 1043.58 645.496 1041.18 430.988 1043.09C261.485 1044.6 238.571 1043.71 230.153 1035.29ZM231.079 948.451C223.831 942.842 221.088 928.173 219.625 887.201C217.79 835.782 216.673 831.833 195.102 800.526C182.672 782.485 154.036 746.986 131.466 721.639C78.9695 662.684 36.2497 599.525 20.6254 557.765C-15.6294 460.865 -3.01575 319.009 50.0279 227.099C94.8406 149.45 164.236 81.653 233.988 47.3754C358.524 -13.8245 485.941 -15.7531 607.618 41.7202C761.742 114.519 847.241 241.244 855.921 409.749C862.001 527.777 833.096 597.043 725.299 722.758C700.254 751.965 670.319 791.793 658.777 811.265C640.631 841.875 637.415 853.058 635.022 893.871C633.498 919.834 629.595 944.394 626.346 948.451C621.841 954.076 575.372 955.826 430.524 955.826C287.609 955.826 238.251 954.002 231.079 948.451ZM350.463 696.01C350.463 690.206 332.217 648.873 309.917 604.157L269.372 522.856L250.968 554.951C228.692 593.8 228.174 605.546 247.092 642.88C264.32 676.877 269.882 681.431 279.711 669.589C290.926 656.075 294.925 658.493 314.812 690.813C330.121 715.694 334.746 719.605 341.87 713.693C346.596 709.771 350.463 701.813 350.463 696.01ZM577.209 694.232C582.172 686.287 579.092 675.635 562.88 644.679C534.197 589.913 450.063 443.6 431.791 416.71L416.676 394.467L394.964 440.208C383.023 465.365 374.36 490.109 375.713 495.194C379.384 508.989 474.156 643.101 480.234 643.101C483.118 643.101 487.118 640.446 489.124 637.201C497.137 624.235 508.734 633.066 532.359 670.124C557.076 708.893 565.293 713.31 577.209 694.232ZM153.865 570.82C160.452 563.519 186.726 526.06 212.253 487.579L258.664 417.613L277.658 440.237C288.104 452.68 297.709 461.595 299.002 460.049C302.161 456.269 336.052 399.128 376.786 328.901C395.14 297.26 411.118 271.372 412.295 271.372C413.472 271.372 442.983 313.983 477.878 366.062C512.772 418.142 543.205 461.917 545.506 463.34C547.809 464.763 556.397 460.652 564.592 454.206C572.787 447.76 581.74 442.485 584.487 442.485C587.233 442.485 611.901 472.848 639.303 509.958C666.705 547.068 693.879 578.674 699.689 580.193C716.667 584.633 738.212 562.723 751.321 527.687C765.378 490.117 768.124 399.739 756.811 346.991C726.191 204.215 582.756 93.8608 428.719 94.5678C359.143 94.8868 278.433 118.056 233.58 150.587C176.741 191.809 120.452 271.566 99.5273 340.526C86.7079 382.775 88.1085 479.896 102.124 520.634C113.781 554.515 130.362 584.097 137.696 584.097C140.002 584.097 147.278 578.123 153.865 570.82Z" fill="#142F25"/>
</svg>
